<svg version="1" xmlns="http://www.w3.org/2000/svg" width="608" height="608" viewBox="0 0 456.000000 456.000000"><path d="M194.9 31.7c-1.3 1.6-1.2 1.7.4.4.9-.7 1.7-1.5 1.7-1.7 0-.8-.8-.3-2.1 1.3zM197.7 31.7c-.4.3.1 1.6 1 2.7 1 1.2 1.4 1.8.9 1.4-.5-.4-1.5-.3-2.3.3-.9.8-1.7.8-2.5.1-.9-.7-1.7-.6-2.5.3-1 1-.9 1.4.3 1.9 1 .4 1.3.2.8-.7-.4-.6-.3-.8.1-.4 1.4 1.2 1.5 3.8.2 3-1.8-1.1-3.8-1.2-3.1-.2.3.5 1 .7 1.5.4.5-.4.9-.1.9.4 0 .6-.4 1.1-1 1.1-.5 0-1 .5-1 1.1 0 .5.4.8.8.5.4-.2 1.3.4 2 1.5s.8 1.9.2 1.9c-.5 0-1-.5-1-1 0-.6-.4-1-.9-1s-.8 1.7-.7 3.7c.2 2.1-.1 4.3-.5 4.9-.5.6-.3 1.1.5 1.1.7 0 1.3-.9 1.2-2-.1-1.1.6-2.2 1.4-2.4.9-.3 1.1-.1.5.4-1.7 1.3-1.1 5.1 1 6.8 2 1.6 2 1.6-.2.6-1.2-.6-2.8-1.1-3.5-1-.7 0-.3.5 1 1.1 1.2.6 2.2 1.7 2.2 2.5 0 1.2-.3 1.2-1.6-.1-1.7-1.8-2.8-2.1-1.9-.7.3.5.1 1.2-.4 1.6-.6.3-.7 1.3-.4 2.1.4 1-.2 1.7-1.6 2.1-1.2.3-2.1 1.3-2.1 2.4 0 1.1-.4 1.9-1 1.9-.5 0-.6-.8-.3-1.7.6-1.5.5-1.6-.9-.3s-1.4 1.6 0 2.6c1.2.9 1.3 1.5.6 2.5-.6.8-1 2.6-.9 4.1.1 1.5-.1 2.5-.5 2.3-.4-.3-.6-1.8-.5-3.4.1-1.6-.2-3.5-.7-4.3-.8-1-.9-.9-.5.4.3.9.1 1.9-.6 2.2-.8.3-.8.5.2.5 1.1.1 1.1.4 0 1.7-1 1.3-1 1.7.2 2.5s1.2 1-.1 1.9c-1.3.9-1.3 1 0 1 1.1 0 1.2.2.2.8-.9.6-.7 1.3 1 2.8 1.3 1 1.8 1.2 1.2.4-1.4-1.8-1.4-5-.1-5 .5 0 .7.6.4 1.3-.3.8-.1 2 .3 2.8.5.7.5 1.8 0 2.4-.6.8-.4 1.9.6 3.1 1.4 1.8 1.4 1.7.3-.6-.6-1.4-.8-2.2-.4-1.8.5.4 1.4.3 2.2-.3.9-.9 1.3-.8 1.3 0 0 .6-.5 1.1-1.1 1.1-.6 0-.9.6-.6 1.2.2.7 1 1.2 1.6 1 .7-.1 1 .2.7.7-.4.5-.2 1.3.4 1.6.8.5.7 1.1-.1 2.1-1.3 1.6.2 1.9 1.8.3.8-.8 1.3-.7 1.8.2.5.7.4 1-.2.6-.6-.4-1.7.1-2.4 1-1.2 1.5-1.2 1.6.3 1.1 1-.4 1.9 0 2.4 1 1.2 2.9 1.3 4.1.1 3.9-.7-.1-1.1.3-1 1 .2.7-.4 1-1.2.7-.8-.4-1.2-1.1-.9-1.8.3-.6-.2-.2-1.1.9-.9 1.1-2.3 1.9-3.2 1.7-1.4-.3-1.4-.2.1 1.3 2.1 2.1 2.1 3.1-.1 1.4-1.5-1.2-1.6-1.2-1 .3.4 1.2 0 1.8-1.6 2.1-2.2.3-2.2.4.3 1.5 2.3 1.1 2.1 1.1-1.5.7-4-.5-4-.5-1.5 1.1 1.4.8 1.7 1.3.8 1-1-.3-2 0-2.4.6-.4.7-.3.8.4.4s1.2-.1 1.2.9c0 .9-.5 1.3-1 1-.6-.4-.5.4.1 1.9.7 1.4 1.6 2.3 2 2 .5-.3.6.2.3 1.1-.4.9-1.1 1.2-1.8.8-.7-.5-.3 0 .8 1 1.4 1.3 1.6 2.1.8 2.9-1.7 1.7-1.5 3.3.2 1.9 1.1-.9 1.6-.9 2.2 0 .4.8.3.9-.4.5s-1.2-.1-1.2.8-.5 1.6-1.2 1.6c-.6 0-.8.3-.5.6.4.4 1.9-.1 3.4-1.1s2.2-1.2 1.6-.4c-1.4 1.4-1.8 3.3-.5 2.5 1.2-.7 1.2 3.6 0 5.1-.7.9-.7 1.3.1 1.3.6 0 1.1-.5 1.1-1 0-.6.5-1 1.1-1 .6 0 .9.7.6 1.5-.7 1.8.9 3 1.9 1.4.4-.8.3-.9-.4-.5-.8.5-1 .1-.5-1 .4-1.1.8-1.3 1.1-.6.2.7.7 1 1.1.8.4-.3.8.1.8.9s-.4 1.2-.9.9c-.4-.3-.8-.1-.8.4 0 1.4 2.8 2.3 3.4 1.1.2-.5.3-.4.2.3-.2.7-1.4 1.2-2.7 1.1-2.1-.2-2.2-.2-.6.8 1 .6 2.5.8 3.3.5 1.2-.5 1.2-.2 0 2.3-.9 1.6-1.2 3.2-.8 3.5.3.4-.2.4-1.1 0-1.2-.4-1.7-.2-1.5.6.2.7-.8 1.4-2.2 1.6-1.3.3-2.7 1-3.2 1.6-1.1 1.9 0 2.2 1.9.7 1.1-.9 1.4-1 .9-.2-.4.7-1.5 1.7-2.5 2.3-1.6.8-1.8.6-1.6-2 .1-1.6-.1-2.8-.5-2.5-.4.2-.7 2.4-.6 4.7.1 3.2.5 4.2 1.5 4 1.2-.3 1.2 0 .1 1.3-.7.8-1.6 1.3-1.9.9-.6-.5-.7-.9-1-3.4-.1-.7-.7-.6-1.5.2-1.2 1.1-1.2 1.4.1 2.1 1.1.7 1.2 1.2.2 2.3-.9 1.1-.9 1.7 0 2.8 1 1.1.8 1.7-.6 2.5-1 .6-1.3 1.1-.7 1.1.6 0 1.4-.3 1.8-.7.3-.4 1.4-.8 2.2-.9.9-.1 1.3 0 1 .3-.3.4-.1 1.2.5 1.9.7.8.7 1.4-.1 1.9-.6.4-.9.1-.8-.6.2-.6-.2-1.3-.9-1.6-.7-.3-.9.3-.6 1.6.3 1.2 1.4 2.1 2.4 2.1 1.1 0 1.9.4 1.9 1 0 .5-.6.7-1.4.4-1.9-.7-3.1 1.5-1.7 2.9.9.9 1.1.8.6-.6-.4-.9-.3-1.7.3-1.7s1.4.9 1.7 2c.3 1.1 1.1 2 1.7 2 .6 0 .6-.6-.2-1.5-1.1-1.3-1-1.4.4-.9 1.9.7 2 1.6.4 3.2-.8.8-.4 1 1.8.6 1.9-.3 2.4-.1 1.6.4-1.1.7-1 1.1.5 1.7 1 .5 2 .8 2.3.7.3 0 .4 1.8.2 4.1-.5 7-.4 6.8-1.9 5.5-.7-.6-1.6-.8-2-.5-.3.4-1.2.2-2-.5-1.1-.8-1.2-.7-.7.6.4 1 1.3 1.5 2.2 1.1 1.2-.4 1.2-.2.4.8-.7.8-.8 1.8-.4 2.3.4.4-.1.2-1-.5-1-.7-1.8-1-1.8-.5s-.4.3-.9-.5c-.6-.9-.8 0-.7 2.5.2 2.8.6 3.8 1.6 3.6 1.1-.3 1 .1-.3 1.6-.9 1-1.4 2.2-1 2.7.5.4.2.5-.4.1-.7-.4-1.3-.3-1.3.2 0 1.7 1.3 2.2 2.9 1 1.4-1 1.4-1 .3.2-1.5 1.8-3.4 2-4.4.5-.5-.7-.8-.6-.8.1 0 2.2 2.9 3.8 4.4 2.5 1.1-.9 1.6-.9 2.2 0 .4.7.3.9-.4.5-.6-.3-1.3-.2-1.7.3-.3.5.3 1.4 1.2 2 1 .6 1.3 1.1.6 1.1-.9 0-1.2 4.8-.3 7 .1.3.1.9 0 1.5-.1.5.2.7.6.2.4-.4 1.5 0 2.5.9 1.3 1.2 1.9 1.2 2.5.3.4-.8.3-1-.4-.5-.8.5-1 .1-.5-.9.8-2.3 2.2.1 1.6 2.6-.4 1.3 0 1.9 1.1 1.9.9 0 1.5.6 1.4 1.2-.2.7.3 1.2 1 1 .8-.1 1 .2.7.8-.8 1.3-5.6 3.4-7 3.1-.5-.2-.7 0-.3.4.7.8-2.2 4.6-3.2 4-.3-.2-.5.9-.4 2.6.1 1.6-.2 2.6-.7 2.3-.5-.3-.7-1-.4-1.5.3-.5-.1-.6-.9-.3-.9.3-1.6 1-1.6 1.6 0 .5.5.6 1.2.2.8-.5.9-.2.5 1-.4 1-.7 2-.7 2.3 0 .3-.8-.1-1.7-.8-1.5-1.1-1.6-1.1-.5.1 1.5 1.8 1.6 5 0 5-.6 0-.8.3-.5.6.4.4 1.3.1 2.1-.5 1.1-.9 1.6-.9 2.2 0 .4.8.3.9-.4.5s-1.3-.1-1.3.8c-.3 3.7-.5 4.1-2.3 3.9-1.3-.1-1.5.2-.7 1 1.2 1.2 4.4-.9 3.5-2.4-.3-.5.2-.6 1.1-.2 1 .3 1.2.8.6 1.2-.5.4-1.2 2-1.5 3.6l-.5 3 2.5-3c1.9-2.2 2.3-2.4 1.5-.8-1.3 2.6.2 6.8 2.1 5.7.7-.5.8-.2.4.5-.6.9-1.3.8-2.7-.5-1.1-.9-2.2-1.4-2.6-1.1-.3.4-.1.7.6.7s.9.5.5 1.2-.3.8.4.4c1.1-.6 3.6 2.7 2.7 3.6-.3.3.2.5 1 .5 1.1 0 1.2-.4.4-1.3-.7-.9-.6-1.4.3-2 .7-.4 1-.4.6 0-.9 1.1 1.4 3.6 2.6 2.8.5-.3.6 0 .2.7-.4.6-1.2.9-1.7.6-.5-.4-.9-.1-.9.4 0 .6.4 1.1.9 1.1 1.1 0 .4 5.1-.8 6.3-.5.5-1.2.3-1.6-.4-.6-.8-.4-1 .6-.4.8.5 1.1.5.7 0-.4-.4-.3-1.4.3-2.1.9-1 .7-1.5-.5-2-.9-.3-1.3-1.1-.9-1.7.4-.6.1-.7-.7-.2-1 .6-.9 1.1.5 2.2 1.7 1.2 1.3 1.8-.8 1.4-.5-.1-.6.3-.3.8.4.5.1 1.3-.5 1.7-.9.5-.6 1.1.7 2.1 1.7 1.3 1.7 1.3-.6.9-1.5-.2-2.4-.9-2.2-1.7.2-.8 0-1-.5-.6-.4.5-.9 1.3-.9 1.8-.1.5-.2 1.3-.3 1.7 0 .5-1 1.8-2.1 3-1.2 1.2-1.7 2.2-1.1 2.2.5 0 1.8-1.5 3-3.3 1.1-1.7 2.1-2.6 2.1-1.9 0 .8.5 1 1.3.6.7-.4.9-.3.4.2s-1.4.9-2 .9c-.7 0-1.1.8-1.1 1.7.1 1-.3 1.6-1 1.5-.6-.1-1 .6-.8 1.5.2 1.1-.3 1.8-1.3 1.8-.8 0-1.5.5-1.5 1.1 0 .7.9.9 2.3.6 2.1-.6 2.1-.5.3.8-1.6 1.2-2.2 1.2-3.4.2-1.3-1.1-1.4-.9-.1 1 .8 1.3 1.7 2.3 2.2 2.3.4 0 .6-.4.3-.8-.3-.5.1-.9.9-.9s1.5.4 1.5.9c0 .4-.4.8-.8.8s-.9 1.1-1 2.5c-.1 1.7.2 2.3 1.2 1.9 1.7-.6 3.1 1.2 1.6 2.1-.5.3-1 1.1-1 1.6 0 .6.5.7 1 .4.6-.4.9-.1.8.7-.2.7.3 1.2 1.1 1 1.2-.3 1.2 0 .2 1.2-1.1 1.3-1 1.7 1 2.5 2 .9 1.8 1-1.5.6-2.1-.2-3.5-.1-3.2.3.8.7 3.5 1.3 6.1 1.3 1.8 0 1.9.1.3 1-1 .6-1.8 1.5-1.8 2.1 0 .7.6.6 1.5-.2.9-.7 1.8-1 2.2-.6.3.3.1.6-.5.6s-1.2 1-1.4 2.2c-.2 1.5-.9 2.2-2.2 2.1-1.3-.1-1.5.2-.7 1 .6.6 1.1 1.8 1.1 2.6 0 1.1-.4 1-1.4-.5-1.6-2-1.7-.2-.2 2.6.4.8-.4.1-1.9-1.5l-2.7-3 1.6 3.1c1.6 3.3 1.7 3.1-2.9 3.6-1.9.2-1.9.3.2 2.3 1.5 1.6 1.5 1.7-.8 1.3-2.1-.3-2.4.1-2.2 2.5.2 1.9-.2 2.5-1 2-.7-.4-.6.1.2 1.1 1.3 1.5 1.3 1.9 0 2.7-1.1.7-1.1.9 0 .9.9 0 1.1.7.8 2.1-.4 1.6-.3 1.8.9.8 1.1-.9 1.4-.8 1.4.2 0 1.1.3 1.1 1.1-.1.7-1 .9-1.1.7-.2-.2.8-.7 1.3-1.2 1.2-.5-.1-1.3.4-1.7 1.2-1.1 1.6-1.2 3.8-.1 2.2.9-1.3 4.2-1.4 4.2-.1 0 .5-.7.7-1.5.3-.9-.3-1.5 0-1.5.9 0 .8.5 1.4 1.1 1.3.6-.2 1.4.3 1.6 1 .3.8-.2 1-1.4.6-1.6-.5-1.7-.5-.1.6 1 .6 1.5 1.8 1.2 2.8-.5 1.3-.4 1.4.4.3.8-1.1 1.1-.9 1.7.8.3 1.1 1.3 2.1 2 2.1.8 0 1.7.5 2 1 .4.7-.2.9-1.7.7-1.2-.2-1.7-.2-1 0 .6.3 1.2.9 1.2 1.4 0 .6 1 .5 2.3-.2 1.9-1 1.8-.8-.6 1.6-1.5 1.5-2.7 3.5-2.7 4.4 0 1.3-.2 1.3-.9.3-.6-1-1-.8-1.6 1-.4 1.2-.8 3.2-.9 4.3-.1 1.1-.5 2.5-.9 3.1-.4.7.2 1 1.9.8 2.1-.2 2.3 0 1.3 1.2-1.4 1.7-2.3 1.8-1.3.1.6-.9.5-.9-.8 0-.8.7-1.9.9-2.3.5-.5-.4-.5-.1-.1.6s1.2.9 1.8.6c.7-.5.9-.1.5.9-.5 1.3-.1 1.7 1.6 1.8h2.2l-2.2.9c-2.9 1.2-3 2-.2 1.5 1.2-.3 1.9-.2 1.5.2-.3.3-.1 1.2.5 1.9.6.8.7 1.4 0 1.8-.6.4-.7 1.4-.4 2.3.5 1.2.3 1.4-.7.8-.9-.5-1.1-.4-.6.4.4.6 1.2.8 1.8.5.6-.4.8.2.3 1.7-.5 1.9-.4 2.1.4.9.9-1.2 1.1-1.1 1.1.7 0 1.2.6 2.8 1.4 3.5 1 1 1.1 2 .4 3.1-.5 1-.6 1.7-.1 1.6 2.7-.5 4.3.3 4.3 2 0 1.1-.5 2.3-1 2.6-1.3.8-.3 2.5 1.3 2.4.9 0 .8-.2-.1-.6-.6-.2-1-.9-.6-1.4.8-1.4 2.4-1.1 2.4.5 0 .7.7 1.9 1.5 2.6.8.7 1.2 1.6.9 2.1-.3.5 0 .9.5.9 1.4 0 1.4-1.3-.1-2.8-.9-.9-.9-1.2 0-1.2.7 0 1.2.5 1.2 1.1 0 .6.7.8 1.6.5 1-.4 1.3-.2.7.7-1.1 1.8-1.3 3.8-.2 3.1.5-.3.7-.9.5-1.3-.3-.4.5-1.3 1.7-2 1.8-1.1 2-1.1 1 0-1.7 1.7-1.7 3 0 2.6.6-.1 1.1.4.9 1.1-.1.8.2 1.1.8.7.8-.5.7-1.2-.2-2.2-1.1-1.4-1-1.5 1.2-.8 2.3.7 2.4.6 1.1-.9-1.2-1.5-1.2-1.7 0-1.4.8.2 1.7 1 2.1 1.8.5 1.1.7 1 .7-.5.1-1.7.3-1.8 1.2-.5.9 1.2 1 1 .6-.8-.3-1.3-.3-2.1 0-1.8.4.3 1.2.1 1.9-.5.8-.7 1.4-.7 1.9.1.4.6.2.9-.3.8-.6-.2-1 0-1.1.4-.3 2.6.1 3 1.3 1.3.8-1.1 1.2-2.5.9-3.2-.3-.7 0-1.3.6-1.3 1 0 1.5 1.4 1.2 3.3-.1.5.3.6.9.2.6-.3.8-1 .5-1.5-.2-.4 1.1-.7 3-.7 1.9.1 3.5.4 3.5.8s.7 1 1.6 1.3c.9.3 1.2.2.9-.5-.4-.6.3-.8 2.2-.4 2.7.6 2.7.6.9-.9-1.1-.9-1.5-1.6-.9-1.6s1.6.7 2.3 1.6c1.1 1.3 1 1.6-.8 2.1-2.6.6-2.9 2.2-.4 2.2 4.6.2 5 .4 4.2 2.5-.4 1.2-1.4 2-2.2 1.8-.7-.2-.9 0-.5.4 1 1 3.8 1.5 3.3.5-.3-.4-.1-1.3.5-2.1.7-1.2.9-1 .9.9 0 1.7.4 2.1 1.5 1.7 4.6-1.8 5-1.9 3-.3-1.1.8-1.7 1.9-1.2 2.3.4.4.7.2.7-.4 0-1.7 2-1.5 4.3.6 1.1.9 1.7 1.2 1.4.5-.4-.6 0-1.6 1-2.2 1-.6 1.3-1.1.6-1.1-.6 0-1.1-.9-1-1.9 0-1.1.5-1.7.9-1.5.5.3.6 1 .3 1.5-.4.5.5.8 1.9.7 1.5-.1 2.6-.6 2.6-1.1 0-.5-.7-.7-1.5-.3-.8.3-1.5.1-1.5-.4 0-.6.4-1 1-1 1.2 0 .9-2.2-.5-3.2-.5-.4 0-.6 1.2-.5 1.6.1 1.9.5 1.2 1.3-1.1 1.3.7 3.2 1.8 2 .4-.3.1-.6-.7-.6-1 0-1-.3 0-1.5.7-.8 1.6-1.2 2.1-1 .4.3.6-.3.4-1.3-.2-1 0-2.5.5-3.2.5-.7.4-2.4 0-3.6-.7-1.9-.6-2.2.6-1.7 1.3.5 1.5-.1 1.2-3.3-.3-3.5.6-4.5 2.2-2.7.3.4-.1.3-.9-.2-.9-.5-1.2-.4-.7.3.4.6 1.3.9 2.2.5 1.2-.4 1-.9-.7-2.4-1.9-1.6-1.9-1.9-.5-1.9 1.3 0 1.6-.7 1.2-3-.2-1.7 0-3 .6-3s.8.7.5 1.5c-.7 1.7.9 3 1.8 1.6.3-.6-.4-2-1.6-3.2-2.1-2.1-2.1-2.2-.3-1.7 1.6.4 2 0 2.2-2 .2-2.4.1-2.4-1.1-.8-1.2 1.6-1.3 1.6-1.3-.3 0-1.1.5-1.7 1-1.4.5.4.7-.1.2-1.2-.5-1.5-.4-1.6.9-.5s1.4 1 .9-.4c-.3-.9-1.5-1.6-2.5-1.6s-1.9-.4-1.9-.9c0-.4 1.1-.7 2.5-.6 1.4.2 2.2-.1 1.9-.6-.3-.6 0-1.6.6-2.4.7-.8.8-1.5.3-1.5-.6 0-1.5 1-2.2 2.3-1.1 2.2-1.1 2.2-.6-.3.4-1.4.6-3.1.6-3.8-.1-.6-.2-2.3-.3-3.6-.1-1.5-.7-2.2-1.5-1.9-.7.3-1.3-.2-1.3-1.2s.5-1.4 1.3-.9c1 .6 1 .4 0-.7-1.5-1.5-1.8-3.3-.5-2.5.5.3.9-.1.9-.8 0-.8-.6-1.2-1.3-.9-1.7.6-2.6 3.3-1.2 3.3.6 0 .9.3.5.6-.3.3-1.4.1-2.4-.5s-1.2-1.1-.5-1.1c.6 0 1.2-.7 1.2-1.5s.5-1.5 1-1.5c.7 0 .6-.8-.1-2.3-1.1-1.9-1.1-2.1.3-.9 1.3 1 1.8 1 2.4.1.4-.7.3-.9-.3-.6-.6.4-1.4 0-1.7-.9-.4-1-.2-1.3.6-.8.7.5.9.2.5-.9s-.2-1.4.8-1c.8.3 1.2.9.9 1.4-.3.5 0 .9.5.9 1.4 0 1.4-1.7.1-2.5-.8-.5-.8-1.1-.1-1.9.7-.9.7-1.6-.2-2.5-.6-.7-.7-1.2-.2-1.1 3.5.7 4.9-3 2.3-6-1.1-1.2-1-1.2.6 0 1.8 1.4 4.6 2.2 4.6 1.3 0-.8-3-3.5-3-2.6 0 .4-.5.1-1-.7-.6-1-.3-2.2 1.3-4 1.2-1.3 1.5-1.9.6-1.2-1.3 1-1.8.8-2.9-1.3-.7-1.3-1.8-2.2-2.3-1.8-.6.3-.7.1-.4-.5.4-.5 1.6-.8 2.8-.5 1.4.4 1.7.8.9 1.3-.9.5-.9.9-.1 1.4.6.4 1.1.4 1.2-.1 0-.4.2-1.5.4-2.4.2-1.2-.3-1.5-1.6-1.2-1.1.3-1.9 0-1.9-.7 0-1-.3-1-1.5 0-.9.7-1.8 1-2.2.6-.3-.3-.1-.6.5-.6.7 0 1.2-.7 1.2-1.6 0-.8.4-1.3.8-1 .5.3.9-.1.9-.9 0-1-.4-1.2-1.2-.5-.7.5-1.5.7-1.9.3-.4-.4-.4.1 0 1.2.7 1.7.6 1.8-.8.5-1.5-1.4-1.5-1.6.3-2.4 2-1 2.6-2.6.9-2.6-.5 0-1 .4-1 1 0 .5-.4 1-1 1-1.8 0-1.1-1.8 1-2.5 1.2-.4 2-1.5 2-2.8 0-1.8.2-1.9 1-.7.7 1.1 1.4 1.2 2.6.4 1.7-1 2.9-4.4 1.6-4.3-2.6.4-2.8-.4-.7-2.7 1.3-1.4 2.2-3.3 1.9-4.2-.5-1.5-.4-1.4.6.1.9 1.3.8 2.1-.4 3.3-2 1.9-2 2 0 2.8 1.2.4 1.5.2 1.1-.9-.4-.8-.2-1.7.4-2.1.6-.3.8-1.3.5-2.1-.4-1.1-.2-1.3.9-.9.8.3 1.4 0 1.2-.7-.1-.7.4-1.1 1.1-.9.8.1 1.1-.2.7-.8-.5-.8-1.1-.7-2.1.1-1.2 1-1.7.9-2.7-.1-.7-.8-.8-1-.1-.7.6.4 1.9-.2 2.8-1.2 1.5-1.7 1.5-1.9-.1-3.2-1.6-1.3-1.7-1.2-.5.3.8.9.9 1.9.4 2.2-1 .6-2.3-2.9-1.5-3.8.3-.3 1.5-.1 2.7.5 2 1 2 .9.2-.5-1-.8-1.5-2-1.1-2.5.3-.6-.1-1.4-1-1.7-.9-.4-1.4-1.3-1.1-2.1.3-.7-.1-1.6-.9-1.9-.8-.4-1.2-1.1-.9-1.6.4-.6-.1-.6-1.4.1-2.5 1.3-5.7-1.6-4.2-3.9.5-.8 1-2 1-2.5-.1-.6-.5-.2-1.1.7-.5 1-1.5 1.8-2.1 1.8-.7 0-.6-.5.2-1.5 1.5-1.8 0-2-2-.3-1.2 1.1-1.2 1-.1-.4.7-.9.9-2.3.5-3-.6-1-.5-1.1.7-.1s1.7.8 2.7-.8c.7-1.1 1.6-1.8 2-1.5.5.3 1.4 0 2.2-.5 1.2-.7 1-.8-.7-.6-1.1.2-2.7.8-3.5 1.5-1.2.9-1.5.9-1.5-.3 0-.7.5-1.3 1.1-1.2.6.1 1-.3.9-.9-.1-.6.9-1 2.2-.8 1.4.1 2.5-.2 2.5-.8 0-.6-.7-.8-1.5-.5-.8.4-1.7.2-2-.4-.4-.5-.1-.8.7-.7.7.2 1.2-.3 1-1-.3-1.6 1.5-1.6 2.1 0 .3 1 .8 1 1.8-.1.8-.8.9-1.1.3-.8-1.6.9-2.5-1.6-1.2-3.4.8-1.2.9-1.1.5.1-.3 1.1.2 1.6 1.6 1.8 1.2 0 1.7-.2 1.1-.6-1.4-.9-2.7-4.5-1.3-3.7 1.3.9.8-2.7-.6-3.7-.6-.5-.5-.8.3-.8 1 0 1-.5.2-2.3-1.1-2.1-1-2.1.4-.3.9 1 1.3 2.3 1 2.7-.3.5 0 .9.5.9.6 0 1.1-.3 1.2-.8 0-.4.2-1.9.4-3.4.4-2.8-1.9-6.3-3.4-5.4-.4.3-.8-.1-.8-.9 0-1.1.4-1.2 1.3-.4.7.6 1.9.9 2.6.6.8-.4.7-.6-.4-.6-2.1-.1-2.4-1.7-.5-2.5.6-.3.1-.3-1.3.1-2.3.5-2.4.4-1-1.2 1.3-1.6 1.2-2-1.4-4.1-1.5-1.3-3.2-2.2-3.7-1.8-1.5.9 0 2.4 1.7 1.7.9-.3 1.4 0 1.2.8-.2.8.3 1.3 1 1.1.6-.1 1.2.2 1.2.8 0 1.6-1.3 1.2-4.5-1.4-2.7-2.1-2.8-2.5-1.5-4.2 1.3-1.6 1.3-1.7 0-.9-2.3 1.4-3.7 1.4-3.7 0 0-.7.7-1.1 1.5-.8 1.2.5 1.2.3.1-1.5-.7-1.2-1.8-2.3-2.4-2.5-.5-.2-.2-.3.8-.1 1.8.2 4.1-2.8 3-4-.6-.6 1.3-1 3.2-.6.6.1.5-.4-.2-1.1-1-1-.9-1.5.5-2.5 2.1-1.7 3.6-1.8 2.6-.2-.4.7-.3.8.5.4.6-.4.9-1.2.5-1.7-.3-.6.2-2 1.2-3.2 1.5-1.8 1.3-1.7-.9.3-2.3 2-2.7 2.1-2.1.6.6-1.5.4-1.7-.7-1.1-1.1.7-1.1.5.1-1 .8-1 1.4-2.8 1.2-3.9-.2-1.9-.2-1.9.8-.3.6.9.8 2.2.5 2.7-.3.5 0 .7.8.4.7-.2 1.4-1.1 1.4-1.9 0-.8-.4-1.2-.9-.9-.4.3-.8-.2-.8-1.1 0-1 .5-1.3 1.2-.9s.8.3.4-.5c-.4-.6-1.1-.9-1.5-.7-.3.3-.7-.4-.7-1.4 0-1.1.6-1.6 1.6-1.3.8.2.4-.3-1-1.1s-2-1.6-1.5-1.6c.6 0 .1-.8-1-1.7-1.5-1.2-1.6-1.4-.3-1 .9.3 1.9 0 2.2-.9.8-2.1.8-2.4-.5-2.4-.5 0-.7.6-.3 1.2.6 1 .5 1-.7.1-1.2-1-1.8-1-2.9 0-1.2 1-1.2.9-.2-.5 1-1.3 1-1.7 0-2.2-.7-.3.1-.3 1.7 0 2.9.4 2.9.4.6-.6-1.4-.6-3.1-.8-3.9-.5-1.1.4-1.2.2-.5-.7 2-2.6 1.1-4.5-1.9-4.2-2.2.3-2.8 0-2.8-1.6 0-1.1-.5-2-1.1-2-.5 0-.8-.4-.5-.9.3-.5 1.6-.7 2.9-.5 2.2.4 2.2.4-.1-.6-1.3-.5-2.9-.7-3.5-.4-.7.3-.3-.2.7-1 1.1-.9 2.3-1.6 2.8-1.6.4 0 .8-.5.8-1.1 0-.5-.4-.7-1-.4-.5.3-1 .1-1-.5s1.2-.8 3.1-.5c2.6.5 2.8.3 1.7-.9-.7-.8-1.7-1.1-2.2-.8-.5.3-.6 0-.1-.7.5-.9 1-1 1.8-.2.6.6 1.6 1.1 2.1 1.1.7 0 .8-.3.1-.8-.5-.4-1.7-1.6-2.5-2.7-1.1-1.6-1.1-1.7 0-.8 2 1.8 3.1 1.6 2.3-.4-.4-1.1-.3-1.4.5-.9.8.5 1 .1.5-1.1-.6-1.5-.4-1.6.8-.6 1.3 1 1.6 1 1.6-.2 0-.8-.4-1.2-.9-.9-1 .6-.6-2.6.6-4.5.6-.9.5-1.2 0-.8-.6.3-1.6.2-2.4-.4-1.2-.7-1-.9.8-.9 1.2 0 2.2-.5 2.2-1.1 0-.5-.4-.7-1-.4-.5.3-1-.1-1-.9 0-1 .6-1.3 1.8-1 1.6.5 1.6.5 0-.6-2.2-1.4-2.4-3.4-.2-2.6.9.3 1.2.2.9-.5-.4-.5-1.6-.7-2.8-.3-2 .6-2.1.5-.7-1.1.9-1.1 1-1.6.3-1.1-.7.4-1.3.3-1.3-.1 0-.5.6-1.5 1.3-2.2 1-1.1.8-1.1-1-.2-2.1 1.1-2.7.8-2.4-1.2 0-.4-.4-.7-1-.7-.5 0-.7-.5-.4-1 .3-.6 0-1-.7-1.1-3.7-.2-8-1.9-4.9-1.9.7 0 .9-.5.6-1-.3-.6-.1-1 .5-1 .7 0 1 .6.7 1.3-.3.8.3 1.3 1.7 1.4 1.1 0 1.5-.1.9-.4-.7-.3-1.3-1.1-1.3-1.8s.6-1.6 1.3-1.9c.6-.3.2-.3-1 0-1.9.4-2.2.2-1.6-1.2.4-1.2.3-1.5-.5-1s-1 .2-.6-.9c.5-1.3.9-1.3 1.8-.3.6.7 1 1.1.9.9-.2-.2.2-1 .9-1.8.6-.8.7-1.3.2-1.1-.5.2-.9-.1-.9-.7 0-.5.5-.9 1.2-.7.6.1 1.4-.2 1.8-.8.4-.6.3-.9-.2-.8-.4.2-.8-.1-.8-.7 0-.5.5-.9 1.1-.7.6.1 1.8-.6 2.5-1.5 1.3-1.6 1.2-1.7-.3-.4-1.3.9-1.8 1-1.8.2 0-.7-.5-.9-1.2-.5s-.8.3-.4-.5c.4-.6 1.1-.9 1.6-.6.5.3 1.4-.3 2-1.4.8-1.6.6-2.2-.7-3-1.7-1-1.7-1-.1-1.1.9 0 2 .4 2.3 1 .3.5 1.1 1 1.8 1 .6 0 .2-.7-.9-1.5-1-.8-1.6-1.5-1.1-1.5.4 0 0-1.4-.9-3.1-.8-1.7-1.1-2.8-.5-2.4.7.3 1.1.3 1-.2-.4-2 .2-2.7 1.2-1.3.9 1.3 1 1.3.6 0-.2-.8-1-1.4-1.6-1.2-.7.1-1.1-.3-.9-1 .1-.7-.6-2.5-1.6-4s-1.5-3.1-1.2-3.7c.4-.5-.3-.7-1.5-.4-1.6.5-2 .2-1.7-.8.3-.8 1.2-1.3 1.9-1.1 1.1.3 1.2.1.2-.9-1.9-1.9-1.5-3.3.5-1.8 1.4 1.1 1.5 1.1.5-.1-1.6-1.7-1.7-6-.2-6 .5 0 .7.5.3 1.2-.4.7-.3.8.5.4.6-.4.9-1.1.6-1.6-.3-.4-.2-1 .2-1.3.5-.2.3-.2-.4-.1-.7.2-1.4 0-1.7-.4-.3-.4.5-.9 1.6-.9 2.2-.2 6.1-3.3 5.3-4.2-.4-.3-1 .1-1.5.9-.5.7-1.6 1.5-2.4 1.6-.9.1-1.4-.2-1-.7.3-.5 1-.7 1.5-.4.5.4.9.3 1-.2 0-.4.3-1.7.5-2.8.3-1.1.6-2.9.7-4 .1-1.1.5-2.3 1-2.6.4-.3.9-2 1.1-3.7.3-1.7.7-3.5 1-4 .3-.5-.1-.9-.8-.9-.8 0-1.2.6-.9 1.4.3.7.1 1.3-.5 1.3-.5 0-.9-.8-.9-1.8 0-4.2-.3-4.8-1.4-3.2-.8 1.2-.9 1.1-.7-.5.2-1.1-.2-1.9-.7-1.8-.6.1-1.1-1-1-2.5 0-1.6.6-2.6 1.4-2.4.7.1 1-.2.6-.8-.3-.6-1.2-.7-1.8-.3-2.9 1.8-4.7-.1-2.2-2.4.4-.4.5-.2.1.4-.4.7-.2 1.3.3 1.3 1.8 0 1.3-1.7-1.2-4.4-1.3-1.4-2.8-2.2-3.3-1.8-.5.4-.1-.2.8-1.3 2.3-2.8 2.3-2.7.8-5.4-1.1-2.1-1-2.6.6-3.8 1.7-1.2 1.7-1.3-.4-1.3-1.3 0-2.2-.6-2.2-1.5 0-1.9-3.8-1.4-5.1.6-.5.9-.9 1-.9.2 0-.6.5-1.5 1-1.8.6-.3 1-1.4.9-2.3 0-1.1-.3-1.2-.6-.5-.2.7-1.1 1.3-1.8 1.3s-1.6-.6-1.8-1.3c-.4-.9-.6-.9-.6.1-.1.8-.6 1-1.3.6-.8-.4-1-.3-.5.2s1.4.9 1.9.9c.6 0 1.3.7 1.5 1.5.3.9.1 1.1-.4.5-.4-.6-1.5-1.2-2.3-1.3-4.9-1.2-5-1.1-4.1.7 1.3 2.3-.3 4.1-3 3.4-1-.3-1.7-.8-1.5-1.2.3-.4-.4-.7-1.3-.7-1.5 0-1.6.4-.8 1.7.6 1 1.5 1.5 2.1 1.2.5-.3.6-.1.2.6-.6.9-1.1.9-2.3-.1-1.8-1.5-4.5-2-3.7-.7.3.5 1.1.6 1.7.3.7-.4.9-.3.5.1-.5.5-2 1-3.4 1.1-2.1.2-2.3 0-1.3-1.2.6-.8.9-1.7.5-2.1-.3-.3-.6-.1-.6.5 0 .7-.5 1.2-1.1 1.2-.5 0-.7-.5-.4-1 .3-.6.1-1-.4-1-.6 0-1.1 1-1.1 2.2 0 2.1 0 2.1-1.6.2-.8-1-1.3-1.4-1-.7.4.6.2 1.5-.4 1.8-.6.4-1 .3-.9-.2.3-1.8-.1-3.3-1-3.3-.5 0-.7 1-.5 2.2.4 2.1.4 2.1-.4.3-.5-1.1-1.4-2.1-2.1-2.1-.6-.1-1.5-.2-2.1-.3-.5 0-.7-.9-.4-1.9.5-1.4.4-1.5-.5-.2-.5.8-2 1.6-3.1 1.6-1.6.1-1.9-.3-1.5-2 .2-1.1.2-1.5-.1-.9-.3.7-1.5 1.3-2.5 1.3-1.3 0-1.8-.5-1.4-1.3.4-.6-.3-.1-1.4 1.3l-2.1 2.5 1-2.9c.6-1.6.8-3.1.5-3.4-.3-.3-.5 0-.5.8 0 1-.4 1-1.7-.1-.9-.8-1.4-.9-1-.3.4.7-.2 1.3-1.6 1.6-1.5.3-2.4 0-2.4-.8 0-.7.6-1 1.2-.7.7.2 1.5-.3 1.9-1.3.5-1.4.4-1.5-.9-.4-1.2 1-1.5 1-1.5-.1-.1-.8-.8-.3-1.6 1.1-.8 1.4-1.3 1.7-1 .7.4-1.2.2-1.7-.6-1.4-.7.2-1.2 1-1 1.6.1.7-.2 1-.8.6-.7-.4-.7-1.2 0-2.5 1.3-2.4 1.2-4-.1-1.8-.5.9-1.6 1.5-2.4 1.2-.8-.4-1.2-1-.9-1.5.6-1.1 0-1.2-.9-.2zm56.4 8c1.3 1.6 1.2 1.7-.3.4-1.7-1.3-2.2-2.1-1.4-2.1.2 0 1 .8 1.7 1.7zM269 56c0 .5-.4 1-1 1-.5 0-1-.5-1-1 0-.6.5-1 1-1 .6 0 1 .4 1 1zm-75.7 6.4c.4 1 .1 1.3-.8.9-.8-.3-1.2-.9-.9-1.4.7-1.2 1.1-1.1 1.7.5zm.2 3.6c-.3.5-1.2 1-1.8 1-.7 0-.6-.4.3-1 1.9-1.2 2.3-1.2 1.5 0zm74 33c-.1 1.7-.7 3.5-1.3 4-.7.6-1 .7-.7.4.3-.4-.1-1.4-.8-2.2-.9-1.3-.9-1.4.1-.8.6.4 1.3.2 1.3-.3.1-.6.3-1.6.4-2.1.1-.6.3-1.2.4-1.5.4-1.5.7-.1.6 2.5zm-.5 7c0 .5-.5 1-1.1 1-.5 0-.7-.5-.4-1 .3-.6.8-1 1.1-1 .2 0 .4.4.4 1zm-76.1 2.1c-1.5.9-3.2.2-2.4-1.1.3-.5 1.3-.6 2.1-.3 1.2.4 1.3.8.3 1.4zm79.1-.1c.6 1.1.7 2 .2 2-.6 0-1.2-.9-1.5-2-.3-1.1-.3-2-.1-2 .2 0 .8.9 1.4 2zm3 3.4c0 .2-.9.6-2 .9-1.1.3-1.8.1-1.4-.4.5-.9 3.4-1.3 3.4-.5zm-.5 2.6c.3.5.1 1-.4 1-.6 0-1.1-.5-1.1-1 0-.6.2-1 .4-1 .3 0 .8.4 1.1 1zm-90.4 5.7c-1.2 2-1.4 1.4-.5-1.2.4-.9.9-1.4 1.1-1.1.3.2 0 1.3-.6 2.3zm90.8.6c.8 1 .7 1.4-.2 1.4-.8 0-1.4-.6-1.4-1.4 0-.7.1-1.3.2-1.3.2 0 .8.6 1.4 1.3zm-.4 5.6c-.9.8-3.6 1-3 .2.2-.4 1.1-.8 2-.8.8 0 1.3.3 1 .6zm-76.2 24.6c-.3.9-.8 1.4-1 1.1-.3-.3-.2-.9.2-1.5.9-1.6 1.5-1.3.8.4zm78.1 7.3c.2.4-.5.9-1.7.9-1.7.2-1.9 0-.7-.7 1.8-1.2 1.8-1.2 2.4-.2zm0 10.4c-.3.4-1.1.8-1.7.7-.9 0-.9-.2 0-.5.7-.3.9-1.3.6-2.2-.4-1.4-.3-1.4.5-.2.6.8.8 1.8.6 2.2zm-91.4-.1c0 .5.5.7 1.2.3.7-.4.8-.3.4.4-.4.6-1.3.9-2.1.5-1.7-.6-2-2.3-.5-2.3.6 0 1 .5 1 1.1zm83 20.4c0 .2-.6.5-1.3.8-.8.3-1.4-.1-1.4-.8 0-.7.6-1.1 1.4-.8.7.3 1.3.6 1.3.8zm-68.3 4.7c-.3.8-.6.5-.6-.6-.1-1.1.2-1.7.5-1.3.3.3.4 1.2.1 1.9zm73.5-.8c.7-.4.8-.2.4.4-1.1 1.8-2.6 1.4-2.5-.6 0-1 .3-1.2.6-.4.2.6 1 .9 1.5.6zm-81.9 9c.4 1 .1 1.3-.8.9-.8-.3-1.2-.9-.9-1.4.7-1.2 1.1-1.1 1.7.5zm3.3 23.1c0 2.3-.1 2.4-1.9.8-1.8-1.7-1.8-1.8 0-2.4 1-.4 1.8-.8 1.9-.8v2.4zm3.1 14c0 .8-.4 1.2-.9.9-.4-.3-.8-.1-.8.3 0 .5-1 1.4-2.2 2.2-1.8 1.1-1.7.7.6-1.8 3.5-3.6 3.3-3.5 3.3-1.6zm-2.7 5.9c0 .2-.8 1-1.7 1.7-1.6 1.3-1.7 1.2-.4-.4 1.3-1.6 2.1-2.1 2.1-1.3zm-4.5 6.7c-.4.5-1.2.9-1.8.8-.9 0-.8-.2.1-.6.6-.2.9-1 .6-1.5-.4-.7-.2-.8.5-.4.6.4.9 1.2.6 1.7zm92.5 1c0 1.4-1.7 1-2.3-.5-.4-1-.1-1.3.9-.9.7.3 1.4.9 1.4 1.4zm-2 40.4c0 .2-.9.3-1.9.2-1.1 0-1.8-.5-1.5-.9.4-.6 3.4 0 3.4.7zm-5.6 21.6c-.8 1.3-2.1 1.1-2.7-.5-.4-1 0-1.2 1.4-.9 1 .3 1.6.9 1.3 1.4zm-90.8 22.5c.1.9 0 1.3-.4 1-.3-.4-.7-1.4-.8-2.2-.1-.9 0-1.3.4-1 .3.4.7 1.4.8 2.2zm1.4 3c0 .8-1.9 1.3-2.4.6-.3-.5.1-.9.9-.9s1.5.2 1.5.3zm-1 3.4c0 .5-.2 1-.4 1-.3 0-.8-.5-1.1-1-.3-.6-.1-1 .4-1 .6 0 1.1.4 1.1 1zm5.8 12.9c0 .3 0 1.3.1 2.1.1 1.3.2 1.3 1.1 0 .6-.9 1-1 1-.3 0 2.3-1.8 2.3-3.3 0-1.2-1.9-1.3-2.4-.2-2.4.8 0 1.4.3 1.3.6zm80.2 11.5c0 .3-.4.8-1 1.1-.5.3-1 .1-1-.4 0-.6.5-1.1 1-1.1.6 0 1 .2 1 .4zm.5 3.5c.3.5.2 1.2-.3 1.5-.5.3-.9-.1-.9-.9 0-1.7.3-1.9 1.2-.6zm-81.2 2.5c.4 1 .1 1.3-.8.9-.8-.3-1.2-.9-.9-1.4.7-1.2 1.1-1.1 1.7.5zm-.1 3c.7-.4.8-.2.4.5-.9 1.3-2.6.5-2.5-1.2 0-.9.2-.8.6.1.2.6 1 .9 1.5.6zm4.3 15.5c.3.5.2 1.2-.3 1.5-.5.3-.9-.1-.9-.9 0-1.7.3-1.9 1.2-.6zm1.3 9.6c-.3.3-.9-.2-1.2-1.2-.6-1.4-.5-1.5.5-.6.7.7 1 1.5.7 1.8zm33.4 8.4c.8-1.2 1-1.2 1.5 0 .5 1.1.7 1.1 1.4 0 .6-1 .9-1.1.9-.2 0 .7.7 1.3 1.6 1.3.8 0 1.2.5.9 1-.4.6-1.2.7-1.8.3-.7-.4-2.3-.8-3.6-.8-1.4-.1-2.6-.6-2.7-1.3-.2-.8-.1-.9.3-.1s.8.7 1.5-.2zm34.4 1.7c-.3 2.3-1.3 2.6-1.8.6-.3-1.1 0-1.9.7-1.9s1.2.6 1.1 1.3zm-9.3 11.8c-.3.4-.9.2-1.4-.5-1.3-2.2-1.1-3.1.5-1.7.8.7 1.2 1.7.9 2.2z"/><path d="M195 35c0 .5.4 1 .9 1 .6 0 1.3-.5 1.6-1 .3-.6-.1-1-.9-1-.9 0-1.6.4-1.6 1zM221.7 37.7c-1 .9-.9 2.3.1 2.3.5 0 .9-.7.9-1.5 0-1.7-.1-1.8-1-.8zM267 38c-.9.6-1 1-.3 1 .6 0 1.5-.5 1.8-1 .8-1.2.4-1.2-1.5 0zM248 38.7c0 1.5 1.8 3.5 2.3 2.7.3-.5-.1-1.5-.9-2.2-.8-.7-1.4-.9-1.4-.5zM226.5 40.1c-.3.4.2.6 1 .5 2.1-.3 2.8-1.3 1-1.3-.9 0-1.8.4-2 .8zM232.5 40c-.3.5-.1 1 .4 1 .6 0 1.1-.5 1.1-1 0-.6-.2-1-.4-1-.3 0-.8.4-1.1 1zM267.5 44.5c.4 1.1.8 2.6.9 3.3.1.7.8 1.8 1.6 2.5 1 1 1.1.9.4-.3-.5-.8-.9-2-1-2.7-.1-.6-.7-1.9-1.4-3-1.1-1.7-1.1-1.7-.5.2zM267 51.4c0 .2.7.7 1.6 1 .8.3 1.2.2.9-.4-.6-1-2.5-1.4-2.5-.6zM273.2 63.9c1.6 2.7 3.8 3.9 3.8 2.2 0-.6-.4-1-.9-.9-.5.2-1.7-.6-2.6-1.7-1.7-1.9-1.7-1.9-.3.4zM277 68c-.9.6-1 1-.3 1 .6 0 1.5-.5 1.8-1 .8-1.2.4-1.2-1.5 0zM277 80c0 .5.1 1.1.2 1.2.1.2-.4 1.4-1.2 2.8-.7 1.4-.9 2.2-.5 1.8.5-.4 1.5-.2 2.4.5 1.4 1.1 1.5 1 .1-.7-1.3-1.6-1.2-2 .5-3.2 1-.8 1.3-1.4.6-1.4-.7 0-.9-.5-.6-1 .3-.6.1-1-.4-1-.6 0-1.1.4-1.1 1zM186 93.2c-1.3.8-1.2.9.2.5.9-.3 1.9-.1 2.1.6.2.7.7.9 1.1.6 1.3-1.2-1.9-2.8-3.4-1.7zM273.5 94c-.3.5-.1 1 .4 1 .6 0 1.1-.5 1.1-1 0-.6-.2-1-.4-1-.3 0-.8.4-1.1 1zM187 97.9c0 .6.4 1.3 1 1.6.6.3.7-.1.4-.9-.7-1.8-1.4-2.1-1.4-.7zM190 101.4c0 .9 3 1.4 3.5.6.4-.6-.3-1-1.4-1-1.2 0-2.1.2-2.1.4zM275 118.1c0 .5.5.7 1 .4.6-.3 1-.8 1-1.1 0-.2-.4-.4-1-.4-.5 0-1 .5-1 1.1zM178.7 126.1c.7.9 1 1.9.6 2.3-.4.4.1.4 1 0 1-.3 1.7-.7 1.5-.8-.2-.1-1.2-.8-2.3-1.6-1.8-1.4-1.9-1.3-.8.1zM183.5 136c.3.5 1.1 1 1.6 1 .6 0 .7-.5.4-1-.3-.6-1.1-1-1.6-1-.6 0-.7.4-.4 1zM269.5 138c-.3.5-.1 1 .4 1 .6 0 1.1-.5 1.1-1 0-.6-.2-1-.4-1-.3 0-.8.4-1.1 1zM190.8 148.7c.7.3 1.6.2 1.9-.1.4-.3-.2-.6-1.3-.5-1.1 0-1.4.3-.6.6zM188.4 151.9c.4.5 0 1.1-.6 1.4-.7.3-.3.4.9.4 1.7-.1 1.9-.4 1.1-1.4-1.2-1.5-2.2-1.8-1.4-.4zM189.3 187.6c0 .9.7 1.2 1.8.9 1.1-.4 1.9 0 2.2 1 .4 1.3.5 1.3.3-.1-.1-2.1-4.3-3.8-4.3-1.8zM192.1 193.4c-.9 1-.8 1.5.3 1.9 1.1.4 1.3.1.9-1-.5-1.2-.3-1.4.7-.8.9.5 1.1.4.6-.3-.9-1.5-1.1-1.5-2.5.2zM183.5 200.9c-.3.5-.2 1.2.3 1.5.5.3.9-.1.9-.9 0-1.7-.3-1.9-1.2-.6zM278.6 201.9c-.4.5-.2 1.2.3 1.5.5.4 1.2.2 1.5-.3.4-.5.2-1.2-.3-1.5-.5-.4-1.2-.2-1.5.3zM185 207.1c0 .5.5.7 1 .4.6-.3 1-.8 1-1.1 0-.2-.4-.4-1-.4-.5 0-1 .5-1 1.1zM185.8 216.7c.9.4 1 .8.2 1.8s-.8 1.5.1 2.1c.7.4.9.3.5-.4-.3-.6-.2-1.3.4-1.7 1.3-.8.3-2.5-1.3-2.4-.8 0-.8.2.1.6zM272 229.4c0 .2.7.7 1.6 1 .8.3 1.2.2.9-.4-.6-1-2.5-1.4-2.5-.6zM271 231.9c0 .6.4 1.3 1 1.6.6.3.7-.1.4-.9-.7-1.8-1.4-2.1-1.4-.7zM195.4 232.8c.3.5 0 1.3-.6 1.5-.8.3-.6.6.5.6 1.9.1 2.3-1.4.5-2.5-.6-.4-.8-.3-.4.4zM185.6 242.7c-.6 1.4-.5 1.5.5.6.7-.7 1-1.5.7-1.8-.3-.3-.9.2-1.2 1.2zM279.4 259.8c.4.3 1.4.7 2.2.8.9.1 1.3 0 1-.4-.4-.3-1.4-.7-2.2-.8-.9-.1-1.3 0-1 .4zM271.6 282.3c-1.6 1.2-1.6 1.4-.2 2.6.9.8 1.6 1.2 1.7 1 .2-1 .6-4.9.4-4.9-.1 0-.9.6-1.9 1.3zM183.6 303.8c.2.3-.2 1.2-.9 2.1-1 1.4-1 1.4.5.3 1.2-.9 1.7-1 2-.1.2.7.9.5 1.8-.7 1.3-1.6 1.3-1.7-.1-1.2-.9.4-2.1.3-2.6-.2-.6-.4-.8-.5-.7-.2zM186.3 309.1c.9.6 1.4 1.5 1.1 2.1-.4.7-.2.8.5.4 1.4-.9-.3-3.6-2.3-3.6-.6 0-.3.5.7 1.1zM183.6 327.8c-.3.5.1.9.9.9s1.2-.4.9-.9c-.3-.4-.7-.8-.9-.8-.2 0-.6.4-.9.8zM274.6 334.5c-1.1.8-1.5 1.5-.9 1.5.7 0 1.5-.5 1.8-1 .4-.6 1.1-.7 1.7-.4.7.4.8.2.4-.4-.9-1.4-.7-1.5-3 .3zM274 344.1c0 .5.5.7 1 .4.6-.3 1-.8 1-1.1 0-.2-.4-.4-1-.4-.5 0-1 .5-1 1.1zM271.5 346.8c.3.3 0 1.1-.7 1.9-.8 1.1-.7 1.2.5.7 2.1-.7 2.9-3.1 1.1-3.1-.8 0-1.2.3-.9.5zM188.3 366.5c0 .8.4 1.2.9.9.4-.3.8-.9.8-1.5 0-.5-.4-.9-.8-.9-.5 0-.9.7-.9 1.5zM271 368.1c0 .5.5.7 1 .4.6-.3 1-.8 1-1.1 0-.2-.4-.4-1-.4-.5 0-1 .5-1 1.1zM186.4 390.9c0 1.5.3 1.7 1.3.9.7-.6 1-1.4.7-1.9-.9-1.5-2-1-2 1zM189.6 403.7c-.6 1.4-.5 1.5.5.6.7-.7 1-1.5.7-1.8-.3-.3-.9.2-1.2 1.2zM194.5 409.1c-.4.6-.5 1.2-.2 1.5.2.3.7-.2 1-1.1.7-1.7.1-2-.8-.4zM237 417.9c0 .5.7 1.1 1.5 1.5.8.3 1.5.1 1.5-.3 0-.5-.7-1.1-1.5-1.5-.8-.3-1.5-.1-1.5.3z"/></svg>